<svg xmlns="http://www.w3.org/2000/svg" xmlns:xlink="http://www.w3.org/1999/xlink" width="500" zoomAndPan="magnify" viewBox="0 0 375 112.499997" height="150" preserveAspectRatio="xMidYMid meet" version="1.0"><defs><g/><clipPath id="709d1b0d28"><path d="M 65 9.363281 L 85 9.363281 L 85 24 L 65 24 Z M 65 9.363281 " clip-rule="nonzero"/></clipPath><clipPath id="f291bd5765"><path d="M 48.695312 86.613281 L 67.816406 86.613281 L 67.816406 100.460938 L 48.695312 100.460938 Z M 48.695312 86.613281 " clip-rule="nonzero"/></clipPath></defs><path fill="#000000" d="M 97.339844 21.78125 L 75.886719 32.128906 C 70.671875 34.644531 67.902344 40.117188 68.503906 45.558594 L 101.199219 29.785156 C 103.382812 28.730469 106.019531 29.652344 107.070312 31.835938 L 109.992188 37.886719 C 111.042969 40.070312 110.125 42.703125 107.941406 43.757812 L 75.246094 59.527344 C 79.128906 63.386719 85.136719 64.625 90.347656 62.113281 L 111.800781 51.761719 C 118.410156 48.574219 121.183594 40.632812 117.996094 34.023438 L 115.074219 27.972656 C 111.886719 21.367188 103.945312 18.59375 97.339844 21.78125 Z M 26.15625 78.328125 L 23.234375 72.277344 C 22.183594 70.09375 23.101562 67.460938 25.285156 66.40625 L 57.980469 50.632812 C 54.097656 46.773438 48.089844 45.539062 42.878906 48.050781 L 21.425781 58.402344 C 14.816406 61.589844 12.042969 69.53125 15.230469 76.136719 L 18.152344 82.1875 C 21.339844 88.796875 29.28125 91.570312 35.886719 88.382812 L 57.34375 78.03125 C 62.554688 75.519531 65.324219 70.046875 64.722656 64.605469 L 32.027344 80.378906 C 29.84375 81.429688 27.207031 80.511719 26.15625 78.328125 " fill-opacity="1" fill-rule="nonzero"/><path fill="#000000" d="M 89.476562 45.375 C 89.90625 46.261719 89.964844 47.28125 89.640625 48.210938 C 89.316406 49.140625 88.636719 49.902344 87.75 50.328125 L 49.738281 68.664062 C 48.851562 69.09375 47.832031 69.152344 46.902344 68.828125 C 45.972656 68.5 45.210938 67.820312 44.78125 66.933594 L 43.746094 64.789062 C 42.859375 62.941406 43.632812 60.726562 45.476562 59.835938 L 83.488281 41.5 C 85.335938 40.609375 87.554688 41.382812 88.441406 43.230469 L 89.476562 45.375 " fill-opacity="1" fill-rule="nonzero"/><path fill="#000000" d="M 30.011719 49.519531 C 29.746094 49.644531 29.441406 49.691406 29.132812 49.636719 C 28.359375 49.492188 27.851562 48.75 27.992188 47.972656 C 30.269531 35.664062 38.320312 25.085938 49.53125 19.675781 C 57.003906 16.074219 65.261719 14.9375 73.410156 16.390625 C 74.183594 16.53125 74.703125 17.269531 74.5625 18.046875 C 74.425781 18.816406 73.679688 19.332031 72.910156 19.199219 C 65.351562 17.847656 57.699219 18.902344 50.769531 22.242188 C 40.375 27.257812 32.90625 37.070312 30.792969 48.492188 C 30.707031 48.957031 30.40625 49.328125 30.011719 49.519531 " fill-opacity="1" fill-rule="nonzero"/><g clip-path="url(#709d1b0d28)"><path fill="#000000" d="M 69.949219 9.367188 L 70.714844 17.355469 L 65.496094 23.453125 L 84.421875 21.6875 L 69.949219 9.367188 " fill-opacity="1" fill-rule="nonzero"/></g><path fill="#000000" d="M 83.691406 90.488281 C 76.222656 94.089844 67.96875 95.226562 59.816406 93.773438 C 59.042969 93.632812 58.527344 92.894531 58.664062 92.121094 C 58.800781 91.347656 59.539062 90.832031 60.316406 90.96875 C 67.875 92.316406 75.53125 91.261719 82.453125 87.921875 C 92.851562 82.90625 100.320312 73.089844 102.433594 61.671875 C 102.574219 60.894531 103.320312 60.386719 104.09375 60.53125 C 104.867188 60.671875 105.378906 61.417969 105.238281 62.191406 C 102.957031 74.5 94.902344 85.078125 83.691406 90.488281 " fill-opacity="1" fill-rule="nonzero"/><g clip-path="url(#f291bd5765)"><path fill="#000000" d="M 63.277344 100.796875 L 62.511719 92.808594 L 67.730469 86.710938 L 48.804688 88.476562 L 63.277344 100.796875 " fill-opacity="1" fill-rule="nonzero"/></g><g fill="#000000" fill-opacity="1"><g transform="translate(127.393674, 63.456993)"><g><path d="M 16.625 -18.46875 L 29.671875 -18.46875 L 29.671875 -1.421875 C 27.554688 -0.722656 25.5625 -0.238281 23.6875 0.03125 C 21.820312 0.3125 19.914062 0.453125 17.96875 0.453125 C 13.007812 0.453125 9.21875 -1.003906 6.59375 -3.921875 C 3.976562 -6.835938 2.671875 -11.023438 2.671875 -16.484375 C 2.671875 -21.796875 4.1875 -25.9375 7.21875 -28.90625 C 10.257812 -31.875 14.472656 -33.359375 19.859375 -33.359375 C 23.234375 -33.359375 26.488281 -32.679688 29.625 -31.328125 L 27.296875 -25.75 C 24.898438 -26.945312 22.40625 -27.546875 19.8125 -27.546875 C 16.800781 -27.546875 14.382812 -26.535156 12.5625 -24.515625 C 10.75 -22.492188 9.84375 -19.769531 9.84375 -16.34375 C 9.84375 -12.78125 10.570312 -10.054688 12.03125 -8.171875 C 13.5 -6.296875 15.628906 -5.359375 18.421875 -5.359375 C 19.878906 -5.359375 21.351562 -5.503906 22.84375 -5.796875 L 22.84375 -12.65625 L 16.625 -12.65625 Z M 16.625 -18.46875 "/></g></g></g><g fill="#000000" fill-opacity="1"><g transform="translate(160.749419, 63.456993)"><g><path d="M 24.265625 0 L 21.890625 -7.828125 L 9.890625 -7.828125 L 7.515625 0 L 0 0 L 11.609375 -33.015625 L 20.125 -33.015625 L 31.78125 0 Z M 20.21875 -13.671875 C 18.007812 -20.765625 16.765625 -24.773438 16.484375 -25.703125 C 16.210938 -26.640625 16.019531 -27.375 15.90625 -27.90625 C 15.40625 -25.988281 13.988281 -21.242188 11.65625 -13.671875 Z M 20.21875 -13.671875 "/></g></g></g><g fill="#000000" fill-opacity="1"><g transform="translate(192.530719, 63.456993)"><g><path d="M 31.421875 -16.75 C 31.421875 -11.34375 29.878906 -7.195312 26.796875 -4.3125 C 23.710938 -1.4375 19.265625 0 13.453125 0 L 4.140625 0 L 4.140625 -32.875 L 14.46875 -32.875 C 19.832031 -32.875 24 -31.457031 26.96875 -28.625 C 29.9375 -25.789062 31.421875 -21.832031 31.421875 -16.75 Z M 24.171875 -16.578125 C 24.171875 -23.640625 21.054688 -27.171875 14.828125 -27.171875 L 11.109375 -27.171875 L 11.109375 -5.765625 L 14.109375 -5.765625 C 20.816406 -5.765625 24.171875 -9.367188 24.171875 -16.578125 Z M 24.171875 -16.578125 "/></g></g></g><g fill="#000000" fill-opacity="1"><g transform="translate(226.628696, 63.456993)"><g><path d="M 4.140625 0 L 4.140625 -32.875 L 11.109375 -32.875 L 11.109375 0 Z M 4.140625 0 "/></g></g></g><g fill="#000000" fill-opacity="1"><g transform="translate(241.878319, 63.456993)"><g><path d="M 11 0 L 4.140625 0 L 4.140625 -32.875 L 22.984375 -32.875 L 22.984375 -27.171875 L 11 -27.171875 L 11 -18.6875 L 22.15625 -18.6875 L 22.15625 -13 L 11 -13 Z M 11 0 "/></g></g></g><g fill="#000000" fill-opacity="1"><g transform="translate(267.159404, 63.456993)"><g><path d="M 14.375 -19.34375 L 21.234375 -32.875 L 28.75 -32.875 L 17.828125 -12.796875 L 17.828125 0 L 10.90625 0 L 10.90625 -12.578125 L 0 -32.875 L 7.5625 -32.875 Z M 14.375 -19.34375 "/></g></g></g><g fill="#737373" fill-opacity="1"><g transform="translate(129.772276, 87.216483)"><g><path d="M 1.546875 0 L 1.546875 -12.328125 L 4.171875 -12.328125 L 4.171875 0 Z M 1.546875 0 "/></g></g></g><g fill="#737373" fill-opacity="1"><g transform="translate(135.485526, 87.216483)"><g><path d="M 12.484375 0 L 9.15625 0 L 3.796875 -9.328125 L 3.71875 -9.328125 C 3.832031 -7.679688 3.890625 -6.503906 3.890625 -5.796875 L 3.890625 0 L 1.546875 0 L 1.546875 -12.328125 L 4.84375 -12.328125 L 10.203125 -3.09375 L 10.265625 -3.09375 C 10.179688 -4.695312 10.140625 -5.828125 10.140625 -6.484375 L 10.140625 -12.328125 L 12.484375 -12.328125 Z M 12.484375 0 "/></g></g></g><g fill="#737373" fill-opacity="1"><g transform="translate(149.515854, 87.216483)"><g><path d="M 4.125 0 L 1.546875 0 L 1.546875 -12.328125 L 8.609375 -12.328125 L 8.609375 -10.1875 L 4.125 -10.1875 L 4.125 -7 L 8.296875 -7 L 8.296875 -4.875 L 4.125 -4.875 Z M 4.125 0 "/></g></g></g><g fill="#737373" fill-opacity="1"><g transform="translate(158.987378, 87.216483)"><g><path d="M 12.734375 -6.171875 C 12.734375 -4.140625 12.226562 -2.570312 11.21875 -1.46875 C 10.207031 -0.375 8.757812 0.171875 6.875 0.171875 C 4.976562 0.171875 3.523438 -0.375 2.515625 -1.46875 C 1.503906 -2.570312 1 -4.148438 1 -6.203125 C 1 -8.253906 1.503906 -9.816406 2.515625 -10.890625 C 3.535156 -11.972656 4.992188 -12.515625 6.890625 -12.515625 C 8.785156 -12.515625 10.234375 -11.96875 11.234375 -10.875 C 12.234375 -9.789062 12.734375 -8.222656 12.734375 -6.171875 Z M 3.75 -6.171875 C 3.75 -4.796875 4.007812 -3.757812 4.53125 -3.0625 C 5.050781 -2.363281 5.832031 -2.015625 6.875 -2.015625 C 8.957031 -2.015625 10 -3.398438 10 -6.171875 C 10 -8.953125 8.960938 -10.34375 6.890625 -10.34375 C 5.847656 -10.34375 5.0625 -9.992188 4.53125 -9.296875 C 4.007812 -8.597656 3.75 -7.554688 3.75 -6.171875 Z M 3.75 -6.171875 "/></g></g></g><g fill="#737373" fill-opacity="1"><g transform="translate(172.722774, 87.216483)"><g><path d="M 4.171875 -6.859375 L 5 -6.859375 C 5.832031 -6.859375 6.441406 -6.992188 6.828125 -7.265625 C 7.222656 -7.546875 7.421875 -7.976562 7.421875 -8.5625 C 7.421875 -9.144531 7.21875 -9.5625 6.8125 -9.8125 C 6.414062 -10.0625 5.796875 -10.1875 4.953125 -10.1875 L 4.171875 -10.1875 Z M 4.171875 -4.734375 L 4.171875 0 L 1.546875 0 L 1.546875 -12.328125 L 5.140625 -12.328125 C 6.816406 -12.328125 8.054688 -12.019531 8.859375 -11.40625 C 9.660156 -10.800781 10.0625 -9.878906 10.0625 -8.640625 C 10.0625 -7.910156 9.863281 -7.257812 9.46875 -6.6875 C 9.070312 -6.125 8.503906 -5.6875 7.765625 -5.375 C 9.628906 -2.601562 10.835938 -0.8125 11.390625 0 L 8.5 0 L 5.5625 -4.734375 Z M 4.171875 -4.734375 "/></g></g></g><g fill="#737373" fill-opacity="1"><g transform="translate(184.115568, 87.216483)"><g><path d="M 6.765625 0 L 3.796875 -9.671875 L 3.71875 -9.671875 C 3.832031 -7.703125 3.890625 -6.390625 3.890625 -5.734375 L 3.890625 0 L 1.546875 0 L 1.546875 -12.328125 L 5.109375 -12.328125 L 8.03125 -2.90625 L 8.078125 -2.90625 L 11.171875 -12.328125 L 14.734375 -12.328125 L 14.734375 0 L 12.296875 0 L 12.296875 -5.828125 C 12.296875 -6.109375 12.296875 -6.425781 12.296875 -6.78125 C 12.304688 -7.144531 12.347656 -8.101562 12.421875 -9.65625 L 12.34375 -9.65625 L 9.15625 0 Z M 6.765625 0 "/></g></g></g><g fill="#737373" fill-opacity="1"><g transform="translate(200.387377, 87.216483)"><g><path d="M 9.09375 0 L 8.203125 -2.9375 L 3.703125 -2.9375 L 2.8125 0 L 0 0 L 4.34375 -12.375 L 7.546875 -12.375 L 11.90625 0 Z M 7.578125 -5.125 C 6.753906 -7.78125 6.289062 -9.28125 6.1875 -9.625 C 6.082031 -9.976562 6.003906 -10.257812 5.953125 -10.46875 C 5.773438 -9.75 5.242188 -7.96875 4.359375 -5.125 Z M 7.578125 -5.125 "/></g></g></g><g fill="#737373" fill-opacity="1"><g transform="translate(212.294196, 87.216483)"><g><path d="M 6.3125 0 L 3.6875 0 L 3.6875 -10.15625 L 0.34375 -10.15625 L 0.34375 -12.328125 L 9.65625 -12.328125 L 9.65625 -10.15625 L 6.3125 -10.15625 Z M 6.3125 0 "/></g></g></g><g fill="#737373" fill-opacity="1"><g transform="translate(222.28817, 87.216483)"><g><path d="M 1.546875 0 L 1.546875 -12.328125 L 4.171875 -12.328125 L 4.171875 0 Z M 1.546875 0 "/></g></g></g><g fill="#737373" fill-opacity="1"><g transform="translate(228.001421, 87.216483)"><g><path d="M 12.734375 -6.171875 C 12.734375 -4.140625 12.226562 -2.570312 11.21875 -1.46875 C 10.207031 -0.375 8.757812 0.171875 6.875 0.171875 C 4.976562 0.171875 3.523438 -0.375 2.515625 -1.46875 C 1.503906 -2.570312 1 -4.148438 1 -6.203125 C 1 -8.253906 1.503906 -9.816406 2.515625 -10.890625 C 3.535156 -11.972656 4.992188 -12.515625 6.890625 -12.515625 C 8.785156 -12.515625 10.234375 -11.96875 11.234375 -10.875 C 12.234375 -9.789062 12.734375 -8.222656 12.734375 -6.171875 Z M 3.75 -6.171875 C 3.75 -4.796875 4.007812 -3.757812 4.53125 -3.0625 C 5.050781 -2.363281 5.832031 -2.015625 6.875 -2.015625 C 8.957031 -2.015625 10 -3.398438 10 -6.171875 C 10 -8.953125 8.960938 -10.34375 6.890625 -10.34375 C 5.847656 -10.34375 5.0625 -9.992188 4.53125 -9.296875 C 4.007812 -8.597656 3.75 -7.554688 3.75 -6.171875 Z M 3.75 -6.171875 "/></g></g></g><g fill="#737373" fill-opacity="1"><g transform="translate(241.736816, 87.216483)"><g><path d="M 12.484375 0 L 9.15625 0 L 3.796875 -9.328125 L 3.71875 -9.328125 C 3.832031 -7.679688 3.890625 -6.503906 3.890625 -5.796875 L 3.890625 0 L 1.546875 0 L 1.546875 -12.328125 L 4.84375 -12.328125 L 10.203125 -3.09375 L 10.265625 -3.09375 C 10.179688 -4.695312 10.140625 -5.828125 10.140625 -6.484375 L 10.140625 -12.328125 L 12.484375 -12.328125 Z M 12.484375 0 "/></g></g></g><g fill="#737373" fill-opacity="1"><g transform="translate(255.767144, 87.216483)"><g/></g></g><g fill="#737373" fill-opacity="1"><g transform="translate(260.250107, 87.216483)"><g><path d="M 8.828125 -3.421875 C 8.828125 -2.304688 8.425781 -1.425781 7.625 -0.78125 C 6.820312 -0.144531 5.707031 0.171875 4.28125 0.171875 C 2.96875 0.171875 1.804688 -0.078125 0.796875 -0.578125 L 0.796875 -3 C 1.628906 -2.625 2.332031 -2.359375 2.90625 -2.203125 C 3.476562 -2.054688 4.003906 -1.984375 4.484375 -1.984375 C 5.054688 -1.984375 5.492188 -2.09375 5.796875 -2.3125 C 6.109375 -2.53125 6.265625 -2.859375 6.265625 -3.296875 C 6.265625 -3.535156 6.195312 -3.75 6.0625 -3.9375 C 5.925781 -4.125 5.726562 -4.304688 5.46875 -4.484375 C 5.207031 -4.660156 4.675781 -4.9375 3.875 -5.3125 C 3.113281 -5.664062 2.546875 -6.003906 2.171875 -6.328125 C 1.796875 -6.660156 1.492188 -7.039062 1.265625 -7.46875 C 1.046875 -7.90625 0.9375 -8.414062 0.9375 -9 C 0.9375 -10.082031 1.304688 -10.9375 2.046875 -11.5625 C 2.785156 -12.1875 3.804688 -12.5 5.109375 -12.5 C 5.742188 -12.5 6.351562 -12.421875 6.9375 -12.265625 C 7.519531 -12.117188 8.128906 -11.910156 8.765625 -11.640625 L 7.921875 -9.609375 C 7.265625 -9.867188 6.71875 -10.050781 6.28125 -10.15625 C 5.851562 -10.269531 5.4375 -10.328125 5.03125 -10.328125 C 4.53125 -10.328125 4.144531 -10.210938 3.875 -9.984375 C 3.613281 -9.753906 3.484375 -9.453125 3.484375 -9.078125 C 3.484375 -8.847656 3.535156 -8.644531 3.640625 -8.46875 C 3.753906 -8.300781 3.925781 -8.132812 4.15625 -7.96875 C 4.394531 -7.8125 4.945312 -7.523438 5.8125 -7.109375 C 6.96875 -6.566406 7.757812 -6.015625 8.1875 -5.453125 C 8.613281 -4.898438 8.828125 -4.222656 8.828125 -3.421875 Z M 8.828125 -3.421875 "/></g></g></g><g fill="#737373" fill-opacity="1"><g transform="translate(269.755338, 87.216483)"><g><path d="M 5.390625 -7.25 L 7.953125 -12.328125 L 10.78125 -12.328125 L 6.6875 -4.796875 L 6.6875 0 L 4.09375 0 L 4.09375 -4.71875 L 0 -12.328125 L 2.828125 -12.328125 Z M 5.390625 -7.25 "/></g></g></g><g fill="#737373" fill-opacity="1"><g transform="translate(280.524562, 87.216483)"><g><path d="M 8.828125 -3.421875 C 8.828125 -2.304688 8.425781 -1.425781 7.625 -0.78125 C 6.820312 -0.144531 5.707031 0.171875 4.28125 0.171875 C 2.96875 0.171875 1.804688 -0.078125 0.796875 -0.578125 L 0.796875 -3 C 1.628906 -2.625 2.332031 -2.359375 2.90625 -2.203125 C 3.476562 -2.054688 4.003906 -1.984375 4.484375 -1.984375 C 5.054688 -1.984375 5.492188 -2.09375 5.796875 -2.3125 C 6.109375 -2.53125 6.265625 -2.859375 6.265625 -3.296875 C 6.265625 -3.535156 6.195312 -3.75 6.0625 -3.9375 C 5.925781 -4.125 5.726562 -4.304688 5.46875 -4.484375 C 5.207031 -4.660156 4.675781 -4.9375 3.875 -5.3125 C 3.113281 -5.664062 2.546875 -6.003906 2.171875 -6.328125 C 1.796875 -6.660156 1.492188 -7.039062 1.265625 -7.46875 C 1.046875 -7.90625 0.9375 -8.414062 0.9375 -9 C 0.9375 -10.082031 1.304688 -10.9375 2.046875 -11.5625 C 2.785156 -12.1875 3.804688 -12.5 5.109375 -12.5 C 5.742188 -12.5 6.351562 -12.421875 6.9375 -12.265625 C 7.519531 -12.117188 8.128906 -11.910156 8.765625 -11.640625 L 7.921875 -9.609375 C 7.265625 -9.867188 6.71875 -10.050781 6.28125 -10.15625 C 5.851562 -10.269531 5.4375 -10.328125 5.03125 -10.328125 C 4.53125 -10.328125 4.144531 -10.210938 3.875 -9.984375 C 3.613281 -9.753906 3.484375 -9.453125 3.484375 -9.078125 C 3.484375 -8.847656 3.535156 -8.644531 3.640625 -8.46875 C 3.753906 -8.300781 3.925781 -8.132812 4.15625 -7.96875 C 4.394531 -7.8125 4.945312 -7.523438 5.8125 -7.109375 C 6.96875 -6.566406 7.757812 -6.015625 8.1875 -5.453125 C 8.613281 -4.898438 8.828125 -4.222656 8.828125 -3.421875 Z M 8.828125 -3.421875 "/></g></g></g><g fill="#737373" fill-opacity="1"><g transform="translate(290.029793, 87.216483)"><g><path d="M 6.3125 0 L 3.6875 0 L 3.6875 -10.15625 L 0.34375 -10.15625 L 0.34375 -12.328125 L 9.65625 -12.328125 L 9.65625 -10.15625 L 6.3125 -10.15625 Z M 6.3125 0 "/></g></g></g><g fill="#737373" fill-opacity="1"><g transform="translate(300.023768, 87.216483)"><g><path d="M 8.65625 0 L 1.546875 0 L 1.546875 -12.328125 L 8.65625 -12.328125 L 8.65625 -10.1875 L 4.171875 -10.1875 L 4.171875 -7.484375 L 8.34375 -7.484375 L 8.34375 -5.34375 L 4.171875 -5.34375 L 4.171875 -2.15625 L 8.65625 -2.15625 Z M 8.65625 0 "/></g></g></g><g fill="#737373" fill-opacity="1"><g transform="translate(309.689105, 87.216483)"><g><path d="M 6.765625 0 L 3.796875 -9.671875 L 3.71875 -9.671875 C 3.832031 -7.703125 3.890625 -6.390625 3.890625 -5.734375 L 3.890625 0 L 1.546875 0 L 1.546875 -12.328125 L 5.109375 -12.328125 L 8.03125 -2.90625 L 8.078125 -2.90625 L 11.171875 -12.328125 L 14.734375 -12.328125 L 14.734375 0 L 12.296875 0 L 12.296875 -5.828125 C 12.296875 -6.109375 12.296875 -6.425781 12.296875 -6.78125 C 12.304688 -7.144531 12.347656 -8.101562 12.421875 -9.65625 L 12.34375 -9.65625 L 9.15625 0 Z M 6.765625 0 "/></g></g></g></svg>